<?xml version="1.0" encoding="utf-8"?>
<svg id="master-artboard" viewBox="0 0 900 900" version="1.1" xmlns="http://www.w3.org/2000/svg" x="0px" y="0px" style="enable-background:new 0 0 1400 980;" width="900px" height="900px"><rect id="ee-background" x="0" y="0" width="900" height="900" style="fill: white; fill-opacity: 0; pointer-events: none;"/><g transform="matrix(0.9183673858642579, 0, 0, 0.9183673858642579, -110.45404561360681, -5.8871049880981445)"><g transform="matrix(1.6013071895424837, 0, 0, 1.6013071895424837, 210.00000980922232, -0.0000032697405458748108)"><path d="m376 0c0 1.08 0 2.16 0 3.3 0 38.76-31.42 70.17-70.17 70.17-38.76 0-70.17-31.42-70.17-70.17l0 0c0-1.14 0-2.22 0-3.3L0 0l0 612 612 0 0-612z" fill="#654ff0" transform="matrix(1, 0, 0, 1, -56.03056399175398, 3.971498036638593)"/><path d="M 437.14288330078125 424.2962341308594 L 437.14288330078125 424.2962341308594" style="fill: rgb(255, 255, 255); fill-opacity: 1; stroke: rgb(0, 0, 0); stroke-opacity: 1; stroke-width: 0; paint-order: fill;" transform="matrix(1, 0, 0, 1, -56.03056399175398, 3.971498036638593)"/><path d="M 142.16 329.81 L 182.72 329.81 L 210.41 477.28 L 210.91 477.28 L 244.19 329.80999999999995 L 282.13 329.80999999999995 L 312.19 479.0899999999999 L 312.78 479.0899999999999 L 344.34 329.80999999999995 L 384.12 329.80999999999995 L 332.43 546.5 L 292.18 546.5 L 262.37 399.03 L 261.59000000000003 399.03 L 229.68000000000004 546.5 L 188.68000000000004 546.5 L 142.16 329.81 Z" fill="#fff" transform="matrix(1, 0, 0, 1, -56.03056399175398, 3.971498036638593)"/><path style="fill: rgb(255, 255, 255); fill-opacity: 1; stroke: rgb(0, 0, 0); stroke-opacity: 1; stroke-width: 0; paint-order: fill;" d="M 206.97377014160156 543.1277465820312" transform="matrix(1, 0, 0, 1, -56.03056399175398, 3.971498036638593)"/><path d="M 516.3638916015625 456.9481201171875" style="fill: rgb(255, 255, 255); fill-opacity: 1; stroke: rgb(0, 0, 0); stroke-opacity: 1; stroke-width: 0; paint-order: fill;" transform="matrix(1, 0, 0, 1, -56.03056399175398, 3.971498036638593)"/></g><path d="M 142.16 329.81 L 182.72 329.81 L 210.41 477.28 L 210.91 477.28 L 244.19 329.80999999999995 L 282.13 329.80999999999995 L 312.19 479.0899999999999 L 312.78 479.0899999999999 L 344.34 329.80999999999995 L 384.12 329.80999999999995 L 332.43 546.5 L 292.18 546.5 L 262.37 399.03 L 261.59000000000003 399.03 L 229.68000000000004 546.5 L 188.68000000000004 546.5 L 142.16 329.81 Z" fill="#fff" transform="matrix(1.6013071537017822, 0, 0, 1.6013071537017822, 444.2432759602865, 6.366421009103476)"/></g></svg>