{
	"bufferViews":[{
		"buffer":0,
		"byteOffset":0,
		"byteLength":288,
		"target":34963
	},
	{
		"buffer":0,
		"byteOffset":288,
		"byteLength":3072,
		"target":34962,
		"byteStride":32
	},
	{
		"buffer":1,
		"byteOffset":0,
		"byteLength":336,
		"target":34963
	},
	{
		"buffer":1,
		"byteOffset":336,
		"byteLength":3584,
		"target":34962,
		"byteStride":32
	},
	{
		"buffer":2,
		"byteOffset":0,
		"byteLength":1056,
		"target":34963
	},
	{
		"buffer":2,
		"byteOffset":1056,
		"byteLength":10560,
		"target":34962,
		"byteStride":32
	},
	{
		"buffer":3,
		"byteOffset":0,
		"byteLength":984,
		"target":34963
	},
	{
		"buffer":3,
		"byteOffset":984,
		"byteLength":10368,
		"target":34962,
		"byteStride":32
	},
	{
		"buffer":4,
		"byteOffset":0,
		"byteLength":720,
		"target":34963
	},
	{
		"buffer":4,
		"byteOffset":720,
		"byteLength":8448,
		"target":34962,
		"byteStride":32
	},
	{
		"buffer":5,
		"byteOffset":0,
		"byteLength":48,
		"target":34963
	},
	{
		"buffer":5,
		"byteOffset":48,
		"byteLength":768,
		"target":34962,
		"byteStride":32
	},
	{
		"buffer":6,
		"byteOffset":0,
		"byteLength":1456
	},
	{
		"buffer":6,
		"byteOffset":1456,
		"byteLength":1820
	},
	{
		"buffer":7,
		"byteOffset":0,
		"byteLength":1656,
		"target":34963
	},
	{
		"buffer":7,
		"byteOffset":1656,
		"byteLength":12544,
		"target":34962,
		"byteStride":32
	},
	{
		"buffer":8,
		"byteOffset":0,
		"byteLength":1820
	},
	{
		"buffer":9,
		"byteOffset":0,
		"byteLength":1656,
		"target":34963
	},
	{
		"buffer":9,
		"byteOffset":1656,
		"byteLength":12544,
		"target":34962,
		"byteStride":32
	},
	{
		"buffer":10,
		"byteOffset":0,
		"byteLength":1820
	},
	{
		"buffer":11,
		"byteOffset":0,
		"byteLength":1176,
		"target":34963
	},
	{
		"buffer":11,
		"byteOffset":1176,
		"byteLength":7680,
		"target":34962,
		"byteStride":32
	},
	{
		"buffer":12,
		"byteOffset":0,
		"byteLength":1820
	},
	{
		"buffer":13,
		"byteOffset":0,
		"byteLength":1152,
		"target":34963
	},
	{
		"buffer":13,
		"byteOffset":1152,
		"byteLength":12288,
		"target":34962,
		"byteStride":32
	},
	{
		"buffer":14,
		"byteOffset":0,
		"byteLength":864,
		"target":34963
	},
	{
		"buffer":14,
		"byteOffset":864,
		"byteLength":9216,
		"target":34962,
		"byteStride":32
	}],
	"asset":{
		"version":"2.0",
		"generator":"Created using the official Cinema 4D glTF Exporter 1.000x284978"
	},
	"scenes":[{
		"nodes":[0]
	}],
	"nodes":[{
		"name":"Ship_Null",
		"translation":[0.0,
		0.0,
		0.0],
		"rotation":[1.0,
		-6.12323889513727e-17,
		-8.046622497204226e-7,
		-6.123228968969919e-17],
		"scale":[1.0,
		-1.0,
		1.0],
		"children":[1,
		4,
		5,
		6]
	},
	{
		"name":"Cockpit_Standard",
		"translation":[97.45796966552735,
		-0.003158554434776306,
		-0.00001793402770999819],
		"rotation":[0.0,
		-8.200460683838173e-7,
		0.0,
		-1.0],
		"scale":[1.0,
		1.0,
		1.0],
		"children":[2,
		3]
	},
	{
		"name":"Cockpit_Standard-Crystal",
		"mesh":0
	},
	{
		"name":"Cockpit_Standard-ShipBody",
		"mesh":1
	},
	{
		"name":"Wing_Standard",
		"translation":[-10.749643325805664,
		1.4210854715202005e-14,
		3.2255014631443758e-18],
		"rotation":[-5.421010862427522e-20,
		-3.1763735522036265e-22,
		0.0,
		-1.0],
		"scale":[1.0,
		1.0,
		1.0],
		"mesh":2
	},
	{
		"name":"Engine_Standard",
		"translation":[-82.23995208740235,
		1.3029717206954957,
		8.131516293641283e-20],
		"rotation":[0.0,
		0.0,
		1.0,
		-6.123234262925839e-17],
		"scale":[1.0,
		-1.0,
		1.0],
		"mesh":3
	},
	{
		"name":"Body_Standard",
		"children":[7,
		8,
		9,
		12]
	},
	{
		"name":"Body_Cage",
		"translation":[0.0,
		0.0,
		0.0],
		"rotation":[-0.7071067690849304,
		0.0,
		0.0,
		-0.7071067690849304],
		"scale":[1.0,
		1.0,
		1.0],
		"mesh":4
	},
	{
		"name":"Crystal_Octa",
		"translation":[5.580902978264621e-33,
		-3.1406588554382326,
		-4.81482486096809e-35],
		"rotation":[1.0369204384019782e-9,
		-0.13917310535907746,
		-7.378071931185559e-9,
		0.9902680516242981],
		"scale":[1.0,
		1.0,
		1.0],
		"mesh":5
	},
	{
		"name":"Gizmo1",
		"translation":[-0.14966616034507752,
		1.6818366050720215,
		2.3928680759933985e-20],
		"rotation":[0.13917310535907746,
		-5.453702651783784e-22,
		-7.664679209121737e-23,
		-0.9902680516242981],
		"scale":[1.0,
		1.0,
		1.0],
		"mesh":6,
		"children":[10]
	},
	{
		"name":"Gizmo3",
		"translation":[1.0178281247994532e-17,
		-7.458511559356299e-17,
		-7.123798549314882e-17],
		"rotation":[0.0,
		-0.27563735842704775,
		0.0,
		0.9612616896629334],
		"scale":[1.0,
		1.0,
		1.0],
		"mesh":7,
		"children":[11]
	},
	{
		"name":"Gizmo2",
		"translation":[7.257034184940024e-18,
		1.6066800199694367e-16,
		-1.51342023663886e-17],
		"rotation":[2.257841925214325e-17,
		-5.071195850506602e-17,
		0.4067366421222687,
		-0.9135454297065735],
		"scale":[1.0,
		1.0,
		1.0],
		"mesh":8
	},
	{
		"name":"Body_Core",
		"translation":[4.4483723640441898,
		-9.860761315262648e-32,
		-4.115400791168213],
		"rotation":[0.0,
		0.0,
		0.0,
		-1.0],
		"scale":[1.0,
		1.0,
		3.0],
		"mesh":9,
		"children":[13]
	},
	{
		"name":"Body_CoreGlow",
		"translation":[0.44899848103523257,
		-0.0455099493265152,
		2.220446049250313e-16],
		"rotation":[0.0,
		0.0,
		0.0,
		-1.0],
		"scale":[0.9399822950363159,
		0.9457372426986694,
		1.0],
		"mesh":10
	}],
	"meshes":[{
		"name":"Cockpit_Standard-Crystal",
		"primitives":[{
			"attributes":{
				"POSITION":1,
				"NORMAL":2,
				"TEXCOORD_0":3
			},
			"indices":0,
			"material":0
		}]
	},
	{
		"name":"Cockpit_Standard-ShipBody",
		"primitives":[{
			"attributes":{
				"POSITION":5,
				"NORMAL":6,
				"TEXCOORD_0":7
			},
			"indices":4,
			"material":1
		}]
	},
	{
		"name":"Wing_Standard",
		"primitives":[{
			"attributes":{
				"POSITION":9,
				"NORMAL":10,
				"TEXCOORD_0":11
			},
			"indices":8,
			"material":1
		}]
	},
	{
		"name":"Engine_Standard",
		"primitives":[{
			"attributes":{
				"POSITION":13,
				"NORMAL":14,
				"TEXCOORD_0":15
			},
			"indices":12,
			"material":1
		}]
	},
	{
		"name":"Body_Cage",
		"primitives":[{
			"attributes":{
				"POSITION":17,
				"NORMAL":18,
				"TEXCOORD_0":19
			},
			"indices":16,
			"material":2
		}]
	},
	{
		"name":"Crystal_Octa",
		"primitives":[{
			"attributes":{
				"POSITION":21,
				"NORMAL":22,
				"TEXCOORD_0":23
			},
			"indices":20,
			"material":0
		}]
	},
	{
		"name":"Gizmo1",
		"primitives":[{
			"attributes":{
				"POSITION":29,
				"NORMAL":30,
				"TEXCOORD_0":31
			},
			"indices":28,
			"material":1
		}]
	},
	{
		"name":"Gizmo3",
		"primitives":[{
			"attributes":{
				"POSITION":35,
				"NORMAL":36,
				"TEXCOORD_0":37
			},
			"indices":34,
			"material":1
		}]
	},
	{
		"name":"Gizmo2",
		"primitives":[{
			"attributes":{
				"POSITION":41,
				"NORMAL":42,
				"TEXCOORD_0":43
			},
			"indices":40,
			"material":1
		}]
	},
	{
		"name":"Body_Core",
		"primitives":[{
			"attributes":{
				"POSITION":47,
				"NORMAL":48,
				"TEXCOORD_0":49
			},
			"indices":46,
			"material":1
		}]
	},
	{
		"name":"Body_CoreGlow",
		"primitives":[{
			"attributes":{
				"POSITION":51,
				"NORMAL":52,
				"TEXCOORD_0":53
			},
			"indices":50,
			"material":0
		}]
	}],
	"accessors":[{
		"bufferView":0,
		"type":"SCALAR",
		"componentType":5123,
		"count":144,
		"byteOffset":0,
		"min":[0],
		"max":[95]
	},
	{
		"bufferView":1,
		"type":"VEC3",
		"componentType":5126,
		"count":96,
		"byteOffset":0,
		"min":[-26.40677833557129,
		-16.667150497436525,
		-20.844547271728517],
		"max":[30.237773895263673,
		16.67020034790039,
		20.844547271728517]
	},
	{
		"bufferView":1,
		"type":"VEC3",
		"componentType":5126,
		"count":96,
		"byteOffset":12,
		"min":[-0.7901250123977661,
		-0.9303125739097595,
		-0.975687563419342],
		"max":[0.6323750019073486,
		0.9305313229560852,
		0.9479063153266907]
	},
	{
		"bufferView":1,
		"type":"VEC2",
		"componentType":5126,
		"count":96,
		"byteOffset":24,
		"min":[0.0,
		0.0],
		"max":[1.0,
		1.0]
	},
	{
		"bufferView":2,
		"type":"SCALAR",
		"componentType":5123,
		"count":168,
		"byteOffset":0,
		"min":[0],
		"max":[111]
	},
	{
		"bufferView":3,
		"type":"VEC3",
		"componentType":5126,
		"count":112,
		"byteOffset":0,
		"min":[-55.5189323425293,
		-72.56269836425781,
		-18.098554611206056],
		"max":[55.5189323425293,
		72.56269836425781,
		18.09840202331543]
	},
	{
		"bufferView":3,
		"type":"VEC3",
		"componentType":5126,
		"count":112,
		"byteOffset":12,
		"min":[-0.971000075340271,
		-0.999093770980835,
		-0.9939063191413879],
		"max":[0.8480625152587891,
		0.999093770980835,
		0.9939063191413879]
	},
	{
		"bufferView":3,
		"type":"VEC2",
		"componentType":5126,
		"count":112,
		"byteOffset":24,
		"min":[0.0,
		0.0],
		"max":[1.0,
		1.0]
	},
	{
		"bufferView":4,
		"type":"SCALAR",
		"componentType":5123,
		"count":528,
		"byteOffset":0,
		"min":[0],
		"max":[329]
	},
	{
		"bufferView":5,
		"type":"VEC3",
		"componentType":5126,
		"count":330,
		"byteOffset":0,
		"min":[-99.4138412475586,
		-147.02223205566407,
		-25.776691436767579],
		"max":[95.42446899414063,
		147.02223205566407,
		25.776691436767579]
	},
	{
		"bufferView":5,
		"type":"VEC3",
		"componentType":5126,
		"count":330,
		"byteOffset":12,
		"min":[-0.672670841217041,
		-0.989837646484375,
		-1.0],
		"max":[0.737410306930542,
		0.992112398147583,
		1.0]
	},
	{
		"bufferView":5,
		"type":"VEC2",
		"componentType":5126,
		"count":330,
		"byteOffset":24,
		"min":[0.0,
		0.0],
		"max":[1.0,
		1.0]
	},
	{
		"bufferView":6,
		"type":"SCALAR",
		"componentType":5123,
		"count":492,
		"byteOffset":0,
		"min":[0],
		"max":[323]
	},
	{
		"bufferView":7,
		"type":"VEC3",
		"componentType":5126,
		"count":324,
		"byteOffset":0,
		"min":[-40.241859436035159,
		-87.66394805908203,
		-54.14039611816406],
		"max":[40.241859436035159,
		87.66394805908203,
		54.14039611816406]
	},
	{
		"bufferView":7,
		"type":"VEC3",
		"componentType":5126,
		"count":324,
		"byteOffset":12,
		"min":[-0.9696221351623535,
		-1.0,
		-0.9961010813713074],
		"max":[1.0,
		1.0,
		0.9970471262931824]
	},
	{
		"bufferView":7,
		"type":"VEC2",
		"componentType":5126,
		"count":324,
		"byteOffset":24,
		"min":[-0.0805235430598259,
		-0.008913664147257805],
		"max":[1.839486002922058,
		1.0069403648376465]
	},
	{
		"bufferView":8,
		"type":"SCALAR",
		"componentType":5123,
		"count":360,
		"byteOffset":0,
		"min":[0],
		"max":[263]
	},
	{
		"bufferView":9,
		"type":"VEC3",
		"componentType":5126,
		"count":264,
		"byteOffset":0,
		"min":[-71.138916015625,
		-71.138916015625,
		-71.138916015625],
		"max":[71.138916015625,
		71.138916015625,
		71.138916015625]
	},
	{
		"bufferView":9,
		"type":"VEC3",
		"componentType":5126,
		"count":264,
		"byteOffset":12,
		"min":[-0.9351131916046143,
		-0.963611364364624,
		-0.9351131916046143],
		"max":[0.9351131916046143,
		0.963611364364624,
		0.9351131916046143]
	},
	{
		"bufferView":9,
		"type":"VEC2",
		"componentType":5126,
		"count":264,
		"byteOffset":24,
		"min":[0.0,
		0.0],
		"max":[1.0,
		1.0]
	},
	{
		"bufferView":10,
		"type":"SCALAR",
		"componentType":5123,
		"count":24,
		"byteOffset":0,
		"min":[0],
		"max":[23]
	},
	{
		"bufferView":11,
		"type":"VEC3",
		"componentType":5126,
		"count":24,
		"byteOffset":0,
		"min":[-36.219905853271487,
		-36.219905853271487,
		-36.219905853271487],
		"max":[36.219905853271487,
		36.219905853271487,
		36.219905853271487]
	},
	{
		"bufferView":11,
		"type":"VEC3",
		"componentType":5126,
		"count":24,
		"byteOffset":12,
		"min":[-0.5773502588272095,
		-0.5773502588272095,
		-0.5773502588272095],
		"max":[0.5773502588272095,
		0.5773502588272095,
		0.5773502588272095]
	},
	{
		"bufferView":11,
		"type":"VEC2",
		"componentType":5126,
		"count":24,
		"byteOffset":24,
		"min":[0.0,
		0.0],
		"max":[1.0,
		0.8669999837875366]
	},
	{
		"bufferView":12,
		"type":"SCALAR",
		"componentType":5126,
		"count":91,
		"byteOffset":0,
		"min":[0.0],
		"max":[3.0]
	},
	{
		"bufferView":12,
		"type":"VEC3",
		"componentType":5126,
		"count":91,
		"byteOffset":364,
		"min":[0.0,
		-3.363650321960449,
		0.0],
		"max":[0.0,
		6.636349678039551,
		0.0]
	},
	{
		"bufferView":13,
		"type":"SCALAR",
		"componentType":5126,
		"count":91,
		"byteOffset":0,
		"min":[0.0],
		"max":[3.0]
	},
	{
		"bufferView":13,
		"type":"VEC4",
		"componentType":5126,
		"count":91,
		"byteOffset":364,
		"min":[-5.579764916552348e-19,
		-1.0,
		0.0,
		-1.0],
		"max":[5.580279836483662e-19,
		-5.293955920339377e-22,
		5.388813374071778e-19,
		1.0]
	},
	{
		"bufferView":14,
		"type":"SCALAR",
		"componentType":5123,
		"count":828,
		"byteOffset":0,
		"min":[0],
		"max":[391]
	},
	{
		"bufferView":15,
		"type":"VEC3",
		"componentType":5126,
		"count":392,
		"byteOffset":0,
		"min":[-65.0,
		-65.0,
		-10.0],
		"max":[65.0,
		65.0,
		10.0]
	},
	{
		"bufferView":15,
		"type":"VEC3",
		"componentType":5126,
		"count":392,
		"byteOffset":12,
		"min":[-0.965925931930542,
		-0.965925931930542,
		-1.0],
		"max":[1.0,
		1.0,
		1.0]
	},
	{
		"bufferView":15,
		"type":"VEC2",
		"componentType":5126,
		"count":392,
		"byteOffset":24,
		"min":[0.0,
		0.0],
		"max":[1.0,
		1.0]
	},
	{
		"bufferView":16,
		"type":"SCALAR",
		"componentType":5126,
		"count":91,
		"byteOffset":0,
		"min":[0.0],
		"max":[3.0]
	},
	{
		"bufferView":16,
		"type":"VEC4",
		"componentType":5126,
		"count":91,
		"byteOffset":364,
		"min":[-1.0,
		-4.306061748416504e-22,
		0.0,
		-1.0],
		"max":[-1.2037062152420225e-35,
		4.978734675677751e-22,
		1.6176890379973755e-22,
		1.0]
	},
	{
		"bufferView":17,
		"type":"SCALAR",
		"componentType":5123,
		"count":828,
		"byteOffset":0,
		"min":[0],
		"max":[391]
	},
	{
		"bufferView":18,
		"type":"VEC3",
		"componentType":5126,
		"count":392,
		"byteOffset":0,
		"min":[-2.5,
		-55.0,
		-55.0],
		"max":[2.5,
		55.0,
		55.0]
	},
	{
		"bufferView":18,
		"type":"VEC3",
		"componentType":5126,
		"count":392,
		"byteOffset":12,
		"min":[-1.0,
		-1.0,
		-0.965925931930542],
		"max":[1.0,
		0.965925931930542,
		1.0]
	},
	{
		"bufferView":18,
		"type":"VEC2",
		"componentType":5126,
		"count":392,
		"byteOffset":24,
		"min":[0.0,
		0.0],
		"max":[1.0,
		1.0]
	},
	{
		"bufferView":19,
		"type":"SCALAR",
		"componentType":5126,
		"count":91,
		"byteOffset":0,
		"min":[0.0],
		"max":[3.0]
	},
	{
		"bufferView":19,
		"type":"VEC4",
		"componentType":5126,
		"count":91,
		"byteOffset":364,
		"min":[-9.769468789500025e-9,
		-0.9993908405303955,
		-6.318451095665978e-9,
		-1.0],
		"max":[7.4097656899141388e-9,
		0.9993908405303955,
		3.947121740566217e-9,
		1.0]
	},
	{
		"bufferView":20,
		"type":"SCALAR",
		"componentType":5123,
		"count":588,
		"byteOffset":0,
		"min":[0],
		"max":[239]
	},
	{
		"bufferView":21,
		"type":"VEC3",
		"componentType":5126,
		"count":240,
		"byteOffset":0,
		"min":[-45.0,
		-2.5,
		-45.0],
		"max":[45.0,
		2.5,
		45.0]
	},
	{
		"bufferView":21,
		"type":"VEC3",
		"componentType":5126,
		"count":240,
		"byteOffset":12,
		"min":[-1.0,
		-1.0,
		-0.9659258723258972],
		"max":[0.9659258723258972,
		1.0,
		1.0]
	},
	{
		"bufferView":21,
		"type":"VEC2",
		"componentType":5126,
		"count":240,
		"byteOffset":24,
		"min":[0.0,
		0.0],
		"max":[1.0,
		1.0]
	},
	{
		"bufferView":22,
		"type":"SCALAR",
		"componentType":5126,
		"count":91,
		"byteOffset":0,
		"min":[0.0],
		"max":[3.0]
	},
	{
		"bufferView":22,
		"type":"VEC4",
		"componentType":5126,
		"count":91,
		"byteOffset":364,
		"min":[-4.650395110092137e-16,
		-6.066371617687678e-16,
		-1.0,
		-1.0],
		"max":[5.753953573609178e-16,
		8.524673518252063e-16,
		1.0,
		1.0]
	},
	{
		"bufferView":23,
		"type":"SCALAR",
		"componentType":5123,
		"count":576,
		"byteOffset":0,
		"min":[0],
		"max":[383]
	},
	{
		"bufferView":24,
		"type":"VEC3",
		"componentType":5126,
		"count":384,
		"byteOffset":0,
		"min":[-85.6204605102539,
		-85.6204605102539,
		-11.933191299438477],
		"max":[85.6204605102539,
		85.6204605102539,
		11.933191299438477]
	},
	{
		"bufferView":24,
		"type":"VEC3",
		"componentType":5126,
		"count":384,
		"byteOffset":12,
		"min":[-0.921390950679779,
		-0.9147875905036926,
		-0.986846923828125],
		"max":[0.9216697216033936,
		0.9147875905036926,
		0.9868468046188355]
	},
	{
		"bufferView":24,
		"type":"VEC2",
		"componentType":5126,
		"count":384,
		"byteOffset":24,
		"min":[0.0,
		0.0],
		"max":[1.0,
		1.0]
	},
	{
		"bufferView":25,
		"type":"SCALAR",
		"componentType":5123,
		"count":432,
		"byteOffset":0,
		"min":[0],
		"max":[287]
	},
	{
		"bufferView":26,
		"type":"VEC3",
		"componentType":5126,
		"count":288,
		"byteOffset":0,
		"min":[-82.50980377197266,
		-82.50980377197266,
		-11.933191299438477],
		"max":[82.50980377197266,
		82.50980377197266,
		11.933191299438477]
	},
	{
		"bufferView":26,
		"type":"VEC3",
		"componentType":5126,
		"count":288,
		"byteOffset":12,
		"min":[-0.6290777325630188,
		-0.7979192137718201,
		-0.986846923828125],
		"max":[0.8112162351608276,
		0.7979192733764648,
		0.9868468046188355]
	},
	{
		"bufferView":26,
		"type":"VEC2",
		"componentType":5126,
		"count":288,
		"byteOffset":24,
		"min":[0.0,
		0.125],
		"max":[1.0,
		0.875]
	}],
	"buffers":[{
		"uri":"data:application/octet-stream;base64,",
		"byteLength":3360
	},
	{
		"uri":"data:application/octet-stream;base64,",
		"byteLength":3920
	},
	{
		"uri":"data:application/octet-stream;base64,",
		"byteLength":11616
	},
	{
		"uri":"data:application/octet-stream;base64,",
		"byteLength":11352
	},
	{
		"uri":"data:application/octet-stream;base64,",
		"byteLength":9168
	},
	{
		"uri":"data:application/octet-stream;base64,",
		"byteLength":816
	},
	{
		"uri":"data:application/octet-stream;base64,",
		"byteLength":3276
	},
	{
		"uri":"data:application/octet-stream;base64,",
		"byteLength":14200
	},
	{
		"uri":"data:application/octet-stream;base64,",
		"byteLength":1820
	},
	{
		"uri":"data:application/octet-stream;base64,",
		"byteLength":14200
	},
	{
		"uri":"data:application/octet-stream;base64,",
		"byteLength":1820
	},
	{
		"uri":"data:application/octet-stream;base64,",
		"byteLength":8856
	},
	{
		"uri":"data:application/octet-stream;base64,",
		"byteLength":1820
	},
	{
		"uri":"data:application/octet-stream;base64,",
		"byteLength":13440
	},
	{
		"uri":"data:application/octet-stream;base64,",
		"byteLength":10080
	}],
	"materials":[{
		"pbrMetallicRoughness":{
			"baseColorFactor":[0.0,
			0.0,
			0.0,
			1.0],
			"metallicFactor":1.0,
			"roughnessFactor":1.0
		},
		"emissiveFactor":[1.0,
		1.0,
		1.0],
		"alphaMode":"OPAQUE",
		"doubleSided":false,
		"name":"Crystal"
	},
	{
		"pbrMetallicRoughness":{
			"baseColorFactor":[0.43200000000000007,
			0.6221333333333333,
			0.8,
			1.0],
			"metallicFactor":0.0,
			"roughnessFactor":0.3799999999999999
		},
		"emissiveFactor":[0.0,
		0.0,
		0.0],
		"alphaMode":"OPAQUE",
		"doubleSided":false,
		"name":"ShipBody"
	},
	{
		"pbrMetallicRoughness":{
			"baseColorFactor":[0.20159999999999995,
			0.3912000000000013,
			0.96,
			0.19999999999999996],
			"metallicFactor":0.0,
			"roughnessFactor":0.5
		},
		"emissiveFactor":[0.0,
		0.0,
		0.0],
		"alphaMode":"BLEND",
		"doubleSided":false,
		"name":"Mat"
	}],
	"animations":[{
		"samplers":[{
			"input":24,
			"interpolation":"LINEAR",
			"output":25
		},
		{
			"input":26,
			"interpolation":"LINEAR",
			"output":27
		},
		{
			"input":32,
			"interpolation":"LINEAR",
			"output":33
		},
		{
			"input":38,
			"interpolation":"LINEAR",
			"output":39
		},
		{
			"input":44,
			"interpolation":"LINEAR",
			"output":45
		}],
		"channels":[{
			"sampler":0,
			"target":{
				"node":8,
				"path":"translation"
			}
		},
		{
			"sampler":1,
			"target":{
				"node":8,
				"path":"rotation"
			}
		},
		{
			"sampler":2,
			"target":{
				"node":9,
				"path":"rotation"
			}
		},
		{
			"sampler":3,
			"target":{
				"node":10,
				"path":"rotation"
			}
		},
		{
			"sampler":4,
			"target":{
				"node":11,
				"path":"rotation"
			}
		}]
	}]
}